ply
format ascii 1.0
comment Created by Blender 2.78 (sub 0) - www.blender.org, source file: 'game_hall_picture_01.blend'
element vertex 124
property float x
property float y
property float z
property float nx
property float ny
property float nz
property float s
property float t
element face 74
property list uchar uint vertex_indices
end_header
-0.040000 0.010000 0.383790 -0.577349 -0.577349 0.577349 0.096973 0.049673
-0.040000 0.020000 0.358790 -0.605701 0.676840 -0.418287 0.108780 0.054395
-0.040000 0.010000 0.353790 -0.556780 -0.436689 -0.706565 0.111141 0.049673
-0.040000 0.020000 0.383790 -0.577349 0.577319 0.577319 0.096973 0.054395
-0.037500 0.018944 0.383790 0.301492 0.301492 0.904508 0.077764 0.104724
-0.040000 0.020000 0.383790 -0.577349 0.577319 0.577319 0.077265 0.103543
-0.040000 0.010000 0.383790 -0.577349 -0.577349 0.577349 0.081987 0.103543
0.040000 0.020000 0.383790 0.577349 0.577319 0.577319 0.077265 0.141323
0.037500 0.018944 0.383790 -0.301492 0.301492 0.904508 0.077764 0.140142
0.037500 0.018944 0.358262 -0.341746 0.617908 -0.708060 0.095890 0.023677
0.037500 0.010000 0.383790 -0.577349 -0.577349 0.577349 0.083834 0.019453
0.037500 0.018944 0.383790 -0.301492 0.301492 0.904508 0.083834 0.023677
0.037500 0.018944 0.358262 -0.341746 0.617908 -0.708060 0.119592 0.069248
0.040000 0.010000 0.353790 0.556780 -0.436689 -0.706565 0.115368 0.068068
0.037500 0.010000 0.353790 -0.556780 -0.436689 -0.706565 0.115368 0.069248
0.040000 0.020000 0.358790 0.605701 0.676809 -0.418287 0.120091 0.068068
-0.040000 0.020000 0.358790 -0.605701 0.676840 -0.418287 0.120091 0.105847
-0.037500 0.018944 0.358262 0.341777 0.617908 -0.708060 0.119592 0.104666
-0.037500 0.018944 0.358262 0.341777 0.617908 -0.708060 0.085946 0.072009
-0.037500 0.010000 0.383790 0.577349 -0.577349 0.577349 0.098002 0.076233
-0.037500 0.010000 0.353790 0.556780 -0.436689 -0.706565 0.083834 0.076233
-0.037500 0.018944 0.383790 0.301492 0.301492 0.904508 0.098002 0.072009
0.037500 0.018944 0.383790 -0.301492 0.301492 0.904508 0.077265 0.086462
-0.037500 0.018944 0.358262 0.341777 0.617908 -0.708060 0.112683 0.098518
-0.037500 0.018944 0.383790 0.301492 0.301492 0.904508 0.112683 0.086462
0.037500 0.018944 0.358262 -0.341746 0.617908 -0.708060 0.077265 0.098518
-0.037500 0.010000 0.383790 0.577349 -0.577349 0.577349 0.081987 0.104724
0.040000 0.010000 0.383790 0.577349 -0.577349 0.577349 0.081987 0.141323
0.037500 0.010000 0.383790 -0.577349 -0.577349 0.577349 0.081987 0.140142
0.037500 0.010000 0.353790 -0.556780 -0.436689 -0.706565 0.098002 0.019453
-0.040000 0.010000 0.353790 -0.556780 -0.436689 -0.706565 0.115368 0.105847
-0.037500 0.010000 0.353790 0.556780 -0.436689 -0.706565 0.115368 0.104666
-0.040000 0.010000 0.383790 -0.577349 -0.577349 0.577349 0.077265 0.027051
-0.037500 0.010000 0.353790 0.556780 -0.436689 -0.706565 0.078445 0.012883
-0.037500 0.010000 0.383790 0.577349 -0.577349 0.577349 0.078445 0.027051
-0.040000 0.010000 0.353790 -0.556780 -0.436689 -0.706565 0.077265 0.012883
-0.040000 0.020000 0.358790 -0.605701 0.676840 -0.418287 0.115044 0.044398
0.040000 0.020000 0.383790 0.577349 0.577319 0.577319 0.077265 0.032592
0.040000 0.020000 0.358790 0.605701 0.676809 -0.418287 0.077265 0.044398
-0.040000 0.020000 0.383790 -0.577349 0.577319 0.577319 0.115044 0.032592
0.040000 0.020000 0.358790 0.605701 0.676809 -0.418287 0.077265 0.049673
0.040000 0.020000 0.383790 0.577349 0.577319 0.577319 0.077265 0.049673
0.040000 0.020000 0.363790 0.999969 0.000000 0.000000 0.077265 0.049673
0.040000 0.010000 0.383790 0.577349 -0.577349 0.577349 0.091432 0.060965
0.040000 0.020000 0.363790 0.999969 0.000000 0.000000 0.081987 0.056242
0.040000 0.020000 0.383790 0.577349 0.577319 0.577319 0.091432 0.056242
0.040000 0.020000 0.358790 0.605701 0.676809 -0.418287 0.079626 0.056242
0.040000 0.010000 0.353790 0.556780 -0.436689 -0.706565 0.077265 0.060965
0.037500 0.010000 0.383790 -0.577349 -0.577349 0.577349 0.077265 0.080921
0.040000 0.010000 0.353790 0.556780 -0.436689 -0.706565 0.078445 0.066754
0.040000 0.010000 0.383790 0.577349 -0.577349 0.577349 0.078445 0.080921
0.037500 0.010000 0.353790 -0.556780 -0.436689 -0.706565 0.077265 0.066754
0.293790 0.001518 -0.443790 0.000000 -1.000000 0.000000 0.564971 0.434647
-0.293790 0.001518 0.443790 0.000000 -1.000000 0.000000 0.287490 0.853802
-0.293790 0.001518 -0.443790 0.000000 -1.000000 0.000000 0.287490 0.434647
0.293790 0.001518 0.443790 0.000000 -1.000000 0.000000 0.564971 0.853802
-0.300000 0.020000 0.450000 -0.577349 0.577349 0.577349 0.288347 0.005000
-0.293790 0.020000 0.443790 0.301492 0.904508 -0.301492 0.285414 0.007933
-0.300000 0.020000 -0.450000 -0.577319 0.577349 -0.577349 0.288347 0.430020
0.300000 0.020000 0.450000 0.577349 0.577349 0.577349 0.005000 0.005000
-0.293790 0.020000 -0.443790 0.301492 0.904508 0.301492 0.285414 0.427087
0.300000 0.020000 -0.450000 0.577349 0.577349 -0.577349 0.005000 0.430020
0.293790 0.020000 0.443790 -0.301492 0.904508 -0.301492 0.007933 0.007933
0.293790 0.020000 -0.443790 -0.301492 0.904508 0.301492 0.007933 0.427087
-0.300000 -0.000000 0.450000 -0.577349 -0.577349 0.577349 0.055176 0.012883
0.300000 0.020000 0.450000 0.577349 0.577349 0.577349 0.045731 0.296230
-0.300000 0.020000 0.450000 -0.577349 0.577349 0.577349 0.045731 0.012883
0.300000 -0.000000 0.450000 0.577349 -0.577349 0.577349 0.055176 0.296230
-0.300000 -0.000000 0.450000 -0.577349 -0.577349 0.577349 0.294059 0.430020
-0.293790 -0.000000 0.443790 0.301492 -0.904508 -0.301492 0.296992 0.427087
0.300000 -0.000000 0.450000 0.577349 -0.577349 0.577349 0.577406 0.430020
-0.293790 0.000000 -0.443790 0.301492 -0.904508 0.301492 0.296992 0.007933
-0.300000 0.000000 -0.450000 -0.577349 -0.577349 -0.577349 0.294059 0.005000
0.300000 0.000000 -0.450000 0.577319 -0.577349 -0.577319 0.577406 0.005000
0.293790 -0.000000 0.443790 -0.301492 -0.904508 -0.301492 0.574474 0.427087
0.293790 0.000000 -0.443790 -0.301492 -0.904508 0.301492 0.574474 0.007933
-0.300000 0.020000 -0.450000 -0.577319 0.577349 -0.577349 0.040723 0.296230
0.300000 0.000000 -0.450000 0.577319 -0.577349 -0.577319 0.031278 0.012883
-0.300000 0.000000 -0.450000 -0.577349 -0.577349 -0.577349 0.031278 0.296230
0.300000 0.020000 -0.450000 0.577349 0.577349 -0.577349 0.040723 0.012883
-0.293790 0.020000 0.443790 0.301492 0.904508 -0.301492 0.989135 0.476692
-0.293790 0.010000 -0.443790 0.707083 0.000000 0.707083 0.569980 0.481415
-0.293790 0.020000 -0.443790 0.301492 0.904508 0.301492 0.569980 0.476692
-0.293790 0.010000 0.443790 0.707083 0.000000 -0.707083 0.989135 0.481415
-0.293790 0.020000 0.443790 0.301492 0.904508 -0.301492 0.071476 0.290365
0.293790 0.010000 0.443790 -0.707083 0.000000 -0.707083 0.066754 0.012883
-0.293790 0.010000 0.443790 0.707083 0.000000 -0.707083 0.066754 0.290365
0.293790 0.020000 0.443790 -0.301492 0.904508 -0.301492 0.071476 0.012883
-0.293790 0.010000 -0.443790 0.707083 0.000000 0.707083 0.025489 0.012883
0.293790 0.020000 -0.443790 -0.301492 0.904508 0.301492 0.020767 0.290365
-0.293790 0.020000 -0.443790 0.301492 0.904508 0.301492 0.020767 0.012883
0.293790 0.010000 -0.443790 -0.707083 0.000000 0.707083 0.025489 0.290365
0.293790 0.010000 0.443790 -0.707083 0.000000 -0.707083 0.569980 0.487204
0.293790 0.020000 -0.443790 -0.301492 0.904508 0.301492 0.989135 0.491926
0.293790 0.010000 -0.443790 -0.707083 0.000000 0.707083 0.989135 0.487204
0.293790 0.020000 0.443790 -0.301492 0.904508 -0.301492 0.569980 0.491926
0.300000 0.020000 0.450000 0.577349 0.577349 0.577349 0.995000 0.434647
0.300000 0.000000 -0.450000 0.577319 -0.577349 -0.577319 0.569980 0.444092
0.300000 0.020000 -0.450000 0.577349 0.577349 -0.577349 0.569980 0.434647
0.300000 -0.000000 0.450000 0.577349 -0.577349 0.577349 0.995000 0.444092
-0.293790 0.001518 0.443790 0.707083 0.000000 -0.707083 0.060901 0.290365
0.293790 -0.000000 0.443790 -0.301492 -0.904508 -0.301492 0.060184 0.012883
-0.293790 -0.000000 0.443790 0.301492 -0.904508 -0.301492 0.060184 0.290365
0.293790 0.001518 0.443790 -0.707083 0.000000 -0.707083 0.060901 0.012883
0.293790 0.001518 -0.443790 -0.707083 0.000000 0.707083 0.989135 0.449817
0.293790 -0.000000 0.443790 -0.301492 -0.904508 -0.301492 0.569980 0.449100
0.293790 0.001518 0.443790 -0.707083 0.000000 -0.707083 0.569980 0.449817
0.293790 0.000000 -0.443790 -0.301492 -0.904508 0.301492 0.989135 0.449100
0.293790 0.001518 -0.443790 -0.707083 0.000000 0.707083 0.012883 0.290365
-0.293790 0.000000 -0.443790 0.301492 -0.904508 0.301492 0.013600 0.012883
0.293790 0.000000 -0.443790 -0.301492 -0.904508 0.301492 0.013600 0.290365
-0.293790 0.001518 -0.443790 0.707083 0.000000 0.707083 0.012883 0.012883
-0.293790 0.001518 0.443790 0.707083 0.000000 -0.707083 0.989135 0.455670
-0.293790 0.000000 -0.443790 0.301492 -0.904508 0.301492 0.569980 0.456387
-0.293790 0.001518 -0.443790 0.707083 0.000000 0.707083 0.569980 0.455670
-0.293790 -0.000000 0.443790 0.301492 -0.904508 -0.301492 0.989135 0.456387
-0.300000 -0.000000 0.450000 -0.577349 -0.577349 0.577349 0.569980 0.462240
-0.300000 0.020000 -0.450000 -0.577319 0.577349 -0.577349 0.995000 0.471684
-0.300000 0.000000 -0.450000 -0.577349 -0.577349 -0.577349 0.995000 0.462240
-0.300000 0.020000 0.450000 -0.577349 0.577349 0.577349 0.569980 0.471684
0.293790 0.010000 0.443790 0.000000 1.000000 0.000000 0.005000 0.434647
-0.293790 0.010000 -0.443790 0.000000 1.000000 0.000000 0.282481 0.853802
-0.293790 0.010000 0.443790 0.000000 1.000000 0.000000 0.282481 0.434647
0.293790 0.010000 -0.443790 0.000000 1.000000 0.000000 0.005000 0.853802
3 0 1 2
3 1 0 3
3 4 5 6
3 5 4 7
3 8 7 4
3 9 10 11
3 12 13 14
3 12 15 13
3 15 12 16
3 17 16 12
3 18 19 20
3 19 18 21
3 22 23 24
3 23 22 25
3 4 6 26
3 7 8 27
3 27 8 28
3 10 9 29
3 16 17 30
3 30 17 31
3 32 33 34
3 33 32 35
3 36 37 38
3 37 36 39
3 40 41 42
3 43 44 45
3 43 46 44
3 46 43 47
3 48 49 50
3 49 48 51
3 52 53 54
3 53 52 55
3 56 57 58
3 57 56 59
3 58 60 61
3 60 58 57
3 57 59 62
3 62 59 63
3 61 63 59
3 61 60 63
3 64 65 66
3 65 64 67
3 68 69 70
3 69 68 71
3 72 71 68
3 71 72 73
3 70 74 73
3 70 69 74
3 71 73 75
3 75 73 74
3 76 77 78
3 77 76 79
3 80 81 82
3 81 80 83
3 84 85 86
3 85 84 87
3 88 89 90
3 89 88 91
3 92 93 94
3 93 92 95
3 96 97 98
3 97 96 99
3 100 101 102
3 101 100 103
3 104 105 106
3 105 104 107
3 108 109 110
3 109 108 111
3 112 113 114
3 113 112 115
3 116 117 118
3 117 116 119
3 120 121 122
3 121 120 123
