ply
format ascii 1.0
comment Created by Blender 2.78 (sub 0) - www.blender.org, source file: 'game_hall_picture_02.blend'
element vertex 184
property float x
property float y
property float z
property float nx
property float ny
property float nz
property float s
property float t
element face 150
property list uchar uint vertex_indices
end_header
0.429388 -0.010000 -0.279388 0.000000 -1.000000 0.000000 0.488331 0.348417
-0.429388 -0.010000 0.279388 0.000000 -1.000000 0.000000 0.014117 0.656972
-0.429388 -0.010000 -0.279388 0.000000 -1.000000 0.000000 0.014117 0.348417
0.429388 -0.010000 0.279388 0.000000 -1.000000 0.000000 0.488331 0.656972
0.434388 -0.020000 -0.284388 -0.033113 -0.998871 0.033113 0.491976 0.012240
-0.431888 -0.019330 -0.281888 0.208533 -0.955504 0.208533 0.013621 0.013621
-0.434388 -0.020000 -0.284388 0.033113 -0.998871 0.033113 0.012240 0.012240
0.431888 -0.019330 -0.281888 -0.208533 -0.955504 0.208533 0.490595 0.013621
0.431888 -0.019330 0.281888 -0.208533 -0.955504 -0.208533 0.490595 0.324936
0.434388 -0.020000 0.284388 -0.033113 -0.998871 -0.033113 0.491976 0.326317
0.445000 -0.020000 -0.295000 0.098453 -0.990234 -0.098453 0.497836 0.006381
-0.445000 -0.020000 -0.295000 -0.098453 -0.990234 -0.098453 0.006380 0.006381
-0.445000 -0.020000 0.295000 -0.098453 -0.990234 0.098453 0.006380 0.332177
-0.434388 -0.020000 0.284388 0.033113 -0.998871 -0.033113 0.012240 0.326317
0.445000 -0.020000 0.295000 0.098453 -0.990234 0.098453 0.497836 0.332177
-0.431888 -0.019330 0.281888 0.208533 -0.955504 -0.208533 0.013621 0.324936
-0.430058 -0.017500 0.280058 0.513443 -0.687521 -0.513443 0.525695 0.810705
0.431888 -0.019330 0.281888 -0.208533 -0.955504 -0.208533 0.524684 0.334741
-0.431888 -0.019330 0.281888 0.208533 -0.955504 -0.208533 0.524684 0.811716
0.430058 -0.017500 0.280058 -0.513474 -0.687521 -0.513443 0.525695 0.335752
-0.429388 -0.015000 0.279388 0.693319 -0.196448 -0.693319 0.527075 0.810335
0.429388 -0.015000 0.279388 -0.693319 -0.196448 -0.693319 0.527075 0.336122
-0.429388 -0.010000 0.279388 0.707083 0.000000 -0.707083 0.529836 0.810335
0.429388 -0.010000 0.279388 -0.707083 0.000000 -0.707083 0.529836 0.336122
0.429388 -0.015000 0.279388 -0.693319 -0.196448 -0.693319 0.021576 0.056016
0.429388 -0.010000 -0.279388 -0.707083 0.000000 0.707083 0.330130 0.058777
0.429388 -0.015000 -0.279388 -0.693289 -0.196448 0.693319 0.330130 0.056016
0.429388 -0.010000 -0.279388 -0.707083 0.000000 0.707083 0.535321 0.810335
-0.429388 -0.015000 -0.279388 0.693319 -0.196448 0.693319 0.538082 0.336122
0.429388 -0.015000 -0.279388 -0.693289 -0.196448 0.693319 0.538082 0.810335
-0.429388 -0.010000 -0.279388 0.707083 0.000000 0.707083 0.535321 0.336122
-0.429388 -0.015000 -0.279388 0.693319 -0.196448 0.693319 0.021576 0.067023
-0.429388 -0.010000 0.279388 0.707083 0.000000 -0.707083 0.330130 0.064262
-0.429388 -0.015000 0.279388 0.693319 -0.196448 -0.693319 0.330130 0.067023
-0.430058 -0.017500 0.280058 0.513443 -0.687521 -0.513443 0.330500 0.068404
-0.430058 -0.017500 -0.280058 0.513443 -0.687521 0.513443 0.021206 0.068404
-0.431888 -0.019330 0.281888 0.208533 -0.955504 -0.208533 0.331511 0.069414
-0.431888 -0.019330 -0.281888 0.208533 -0.955504 0.208533 0.020195 0.069414
0.431888 -0.019330 -0.281888 -0.208533 -0.955504 0.208533 0.540473 0.811716
-0.430058 -0.017500 -0.280058 0.513443 -0.687521 0.513443 0.539463 0.335752
-0.431888 -0.019330 -0.281888 0.208533 -0.955504 0.208533 0.540473 0.334741
0.430058 -0.017500 -0.280058 -0.513443 -0.687521 0.513443 0.539463 0.810705
0.431888 -0.019330 -0.281888 -0.208533 -0.955504 0.208533 0.331511 0.053625
0.430058 -0.017500 0.280058 -0.513474 -0.687521 -0.513443 0.021206 0.054636
0.430058 -0.017500 -0.280058 -0.513443 -0.687521 0.513443 0.330500 0.054636
0.431888 -0.019330 0.281888 -0.208533 -0.955504 -0.208533 0.020195 0.053625
0.447500 -0.019330 -0.297500 0.333171 -0.882015 -0.333171 0.499216 0.005000
0.447500 -0.019330 0.297500 0.333171 -0.882015 0.333171 0.499216 0.333557
0.449330 -0.017500 -0.299330 0.588519 -0.554247 -0.588549 0.020565 0.046574
0.447500 -0.019330 0.297500 0.333171 -0.882015 0.333171 0.350133 0.047584
0.447500 -0.019330 -0.297500 0.333171 -0.882015 -0.333171 0.021576 0.047584
0.449330 -0.017500 0.299330 0.588519 -0.554247 0.588549 0.351144 0.046574
0.450000 -0.015000 0.300000 0.697134 -0.167241 0.697134 0.351514 0.045193
0.450000 -0.015000 -0.300000 0.697134 -0.167241 -0.697134 0.020195 0.045193
0.449330 -0.017500 -0.299330 0.588519 -0.554247 -0.588549 0.546968 0.335111
-0.450000 -0.015000 -0.300000 -0.697134 -0.167241 -0.697134 0.548349 0.831718
0.450000 -0.015000 -0.300000 0.697134 -0.167241 -0.697134 0.548349 0.334741
-0.449330 -0.017500 -0.299330 -0.588549 -0.554247 -0.588519 0.546968 0.831348
-0.447500 -0.019330 -0.297500 -0.333171 -0.882015 -0.333171 0.545958 0.830338
0.447500 -0.019330 -0.297500 0.333171 -0.882015 -0.333171 0.545958 0.336122
-0.447500 -0.019330 -0.297500 -0.333171 -0.882015 -0.333171 0.005000 0.005000
-0.447500 -0.019330 0.297500 -0.333171 -0.882015 0.333171 0.005000 0.333557
0.449330 -0.017500 0.299330 0.588519 -0.554247 0.588549 0.517633 0.831348
-0.447500 -0.019330 0.297500 -0.333171 -0.882015 0.333171 0.518643 0.336122
0.447500 -0.019330 0.297500 0.333171 -0.882015 0.333171 0.518643 0.830338
-0.449330 -0.017500 0.299330 -0.588519 -0.554247 0.588549 0.517633 0.335111
0.450000 -0.015000 0.300000 0.697134 -0.167241 0.697134 0.516252 0.831718
-0.450000 -0.015000 0.300000 -0.697134 -0.167241 0.697134 0.516252 0.334741
0.450000 -0.000000 0.300000 0.577349 0.577349 0.577349 0.507969 0.831718
-0.450000 -0.000000 0.300000 -0.577349 0.577349 0.577349 0.507969 0.334741
0.450000 -0.000000 0.300000 0.577349 0.577349 0.577349 0.351514 0.036910
0.450000 0.000000 -0.300000 0.577349 0.577349 -0.577349 0.020195 0.036910
-0.450000 0.000000 -0.300000 -0.577349 0.577349 -0.577349 0.556632 0.831718
0.450000 0.000000 -0.300000 0.577349 0.577349 -0.577349 0.556632 0.334741
-0.450000 -0.015000 0.300000 -0.697134 -0.167241 0.697134 0.020195 0.022586
-0.450000 0.000000 -0.300000 -0.577349 0.577349 -0.577349 0.351514 0.030869
-0.450000 -0.015000 -0.300000 -0.697134 -0.167241 -0.697134 0.351514 0.022586
-0.450000 -0.000000 0.300000 -0.577349 0.577349 0.577349 0.020195 0.030869
-0.449330 -0.017500 -0.299330 -0.588549 -0.554247 -0.588519 0.351144 0.021206
-0.449330 -0.017500 0.299330 -0.588519 -0.554247 0.588549 0.020565 0.021206
-0.447500 -0.019330 -0.297500 -0.333171 -0.882015 -0.333171 0.350133 0.020195
-0.447500 -0.019330 0.297500 -0.333171 -0.882015 0.333171 0.021576 0.020195
0.429388 -0.010000 0.279388 -0.707083 0.000000 -0.707083 0.021576 0.058777
-0.429388 -0.010000 -0.279388 0.707083 0.000000 0.707083 0.021576 0.064262
-0.443745 -0.000000 0.293745 0.000000 1.000000 0.000000 0.498523 0.342754
-0.450000 -0.000000 0.300000 -0.577349 0.577349 0.577349 0.501977 0.339300
0.450000 -0.000000 0.300000 0.577349 0.577349 0.577349 0.005000 0.339300
-0.450000 0.000000 -0.300000 -0.577349 0.577349 -0.577349 0.501977 0.670618
-0.443745 0.000000 -0.293745 0.000000 1.000000 0.000000 0.498523 0.667164
0.450000 0.000000 -0.300000 0.577349 0.577349 -0.577349 0.005000 0.670618
0.443745 0.000000 -0.293745 0.000000 1.000000 0.000000 0.008454 0.667164
0.443745 -0.000000 0.293745 0.000000 1.000000 0.000000 0.008454 0.342754
-0.040000 -0.000000 0.253745 -0.577349 -0.577349 0.577349 0.044508 0.082497
-0.040000 0.005000 0.233745 -0.577349 0.577349 -0.577349 0.055552 0.085258
-0.040000 -0.000000 0.233745 -0.577349 -0.577349 -0.577349 0.055552 0.082497
-0.040000 0.005000 0.253745 -0.577349 0.577349 0.577349 0.044508 0.085258
-0.038335 0.003335 0.253745 0.301492 -0.301492 0.904508 0.093775 0.075818
-0.040000 0.005000 0.253745 -0.577349 0.577349 0.577349 0.092856 0.074899
-0.040000 -0.000000 0.253745 -0.577349 -0.577349 0.577349 0.095616 0.074899
-0.020000 0.005000 0.253745 -0.148595 0.629475 0.762658 0.092856 0.085943
-0.019607 0.003335 0.253745 0.172826 -0.732109 0.658864 0.093775 0.086160
-0.009607 0.008335 0.253745 0.148595 -0.629475 0.762658 0.091014 0.091682
-0.010000 0.010000 0.253745 -0.172826 0.732109 0.658864 0.090094 0.091465
0.000000 0.010000 0.253745 0.000000 0.707083 0.707083 0.090094 0.096987
0.010000 0.010000 0.253745 0.172826 0.732109 0.658864 0.090094 0.102509
0.009607 0.008335 0.253745 -0.148595 -0.629475 0.762658 0.091014 0.102292
0.020000 0.005000 0.253745 0.148595 0.629475 0.762658 0.092856 0.108031
0.019607 0.003335 0.253745 -0.172826 -0.732109 0.658864 0.093775 0.107814
-0.038335 -0.000000 0.253745 0.577349 -0.577349 0.577349 0.095616 0.075818
0.040000 0.005000 0.253745 0.577349 0.577319 0.577319 0.092856 0.119075
0.038335 0.003335 0.253745 -0.301492 -0.301492 0.904508 0.093775 0.118155
0.040000 -0.000000 0.253745 0.577349 -0.577349 0.577349 0.095616 0.119075
0.038335 -0.000000 0.253745 -0.577349 -0.577349 0.577349 0.095616 0.118155
0.000000 0.008335 0.253745 0.000000 -0.707083 0.707083 0.091014 0.096987
0.009607 0.008335 0.253745 -0.148595 -0.629475 0.762658 0.046669 0.119373
0.019607 0.003335 0.233745 -0.172826 -0.732109 -0.658864 0.052191 0.108329
0.019607 0.003335 0.253745 -0.172826 -0.732109 0.658864 0.052191 0.119373
0.009607 0.008335 0.233745 -0.148595 -0.629475 -0.762658 0.046669 0.108329
0.000000 0.008335 0.253745 0.000000 -0.707083 0.707083 0.041364 0.119373
0.000000 0.008335 0.233745 0.000000 -0.707083 0.707083 0.041364 0.108329
-0.009607 0.008335 0.253745 0.148595 -0.629475 0.762658 0.036059 0.119373
-0.009607 0.008335 0.233745 0.148595 -0.629475 -0.762658 0.036059 0.108329
-0.019607 0.003335 0.253745 0.172826 -0.732109 0.658864 0.030537 0.119373
-0.019607 0.003335 0.233745 0.172826 -0.732109 -0.658864 0.030537 0.108329
-0.038335 0.003335 0.253745 0.301492 -0.301492 0.904508 0.020195 0.119373
-0.038335 0.003335 0.233745 0.301492 -0.301492 -0.904508 0.020195 0.108329
-0.038335 0.003335 0.253745 0.301492 -0.301492 0.904508 0.057071 0.074899
-0.038335 -0.000000 0.233745 0.577349 -0.577349 -0.577349 0.046028 0.076741
-0.038335 0.003335 0.233745 0.301492 -0.301492 -0.904508 0.046028 0.074899
-0.038335 -0.000000 0.253745 0.577349 -0.577349 0.577349 0.057071 0.076741
-0.040000 -0.000000 0.253745 -0.577349 -0.577349 0.577349 0.062743 0.085943
-0.038335 -0.000000 0.233745 0.577349 -0.577349 -0.577349 0.063662 0.074899
-0.038335 -0.000000 0.253745 0.577349 -0.577349 0.577349 0.063662 0.085943
-0.040000 -0.000000 0.233745 -0.577349 -0.577349 -0.577349 0.062743 0.074899
-0.040000 -0.000000 0.233745 -0.577349 -0.577349 -0.577349 0.071860 0.119075
-0.038335 0.003335 0.233745 0.301492 -0.301492 -0.904508 0.073702 0.118155
-0.038335 -0.000000 0.233745 0.577349 -0.577349 -0.577349 0.071860 0.118155
-0.040000 0.005000 0.233745 -0.577349 0.577349 -0.577349 0.074621 0.119075
-0.019607 0.003335 0.233745 0.172826 -0.732109 -0.658864 0.073702 0.107814
-0.020000 0.005000 0.233745 -0.148595 0.629475 -0.762658 0.074621 0.108031
-0.009607 0.008335 0.233745 0.148595 -0.629475 -0.762658 0.076462 0.102292
-0.010000 0.010000 0.233745 -0.172826 0.732109 -0.658864 0.077382 0.102509
0.009607 0.008335 0.233745 -0.148595 -0.629475 -0.762658 0.076462 0.091682
0.010000 0.010000 0.233745 0.172826 0.732109 -0.658864 0.077382 0.091465
0.020000 0.005000 0.233745 0.148595 0.629475 -0.762658 0.074621 0.085943
0.038335 0.003335 0.233745 -0.301492 -0.301492 -0.904508 0.073702 0.075818
0.019607 0.003335 0.233745 -0.172826 -0.732109 -0.658864 0.073702 0.086160
0.040000 0.005000 0.233745 0.577349 0.577349 -0.577349 0.074621 0.074899
0.040000 -0.000000 0.233745 0.577349 -0.577349 -0.577349 0.071860 0.074899
0.038335 -0.000000 0.233745 -0.577349 -0.577349 -0.577349 0.071860 0.075818
-0.009607 0.008335 0.233745 0.148595 -0.629475 -0.762658 0.082497 0.074899
0.009607 0.008335 0.233745 -0.148595 -0.629475 -0.762658 0.082497 0.085509
0.000000 0.008335 0.233745 0.000000 -0.707083 0.707083 0.082497 0.080204
0.010000 0.010000 0.233745 0.172826 0.732109 -0.658864 0.036761 0.102658
0.020000 0.005000 0.253745 0.148595 0.629475 0.762658 0.031239 0.091614
0.020000 0.005000 0.233745 0.148595 0.629475 -0.762658 0.031239 0.102658
0.010000 0.010000 0.253745 0.172826 0.732109 0.658864 0.036761 0.091614
0.000000 0.010000 0.253745 0.000000 0.707083 0.707083 0.042283 0.091614
-0.010000 0.010000 0.233745 -0.172826 0.732109 -0.658864 0.047805 0.102658
-0.010000 0.010000 0.253745 -0.172826 0.732109 0.658864 0.047805 0.091614
-0.020000 0.005000 0.233745 -0.148595 0.629475 -0.762658 0.053327 0.102658
-0.020000 0.005000 0.253745 -0.148595 0.629475 0.762658 0.053327 0.091614
-0.040000 0.005000 0.233745 -0.577349 0.577349 -0.577349 0.064371 0.102658
-0.040000 0.005000 0.253745 -0.577349 0.577349 0.577349 0.064371 0.091614
0.040000 0.005000 0.253745 0.577349 0.577319 0.577319 0.020195 0.091614
0.040000 0.005000 0.233745 0.577349 0.577349 -0.577349 0.020195 0.102658
0.040000 0.005000 0.253745 0.577349 0.577319 0.577319 0.031239 0.082497
0.040000 -0.000000 0.233745 0.577349 -0.577349 -0.577349 0.020195 0.085258
0.040000 0.005000 0.233745 0.577349 0.577349 -0.577349 0.020195 0.082497
0.040000 -0.000000 0.253745 0.577349 -0.577349 0.577349 0.031239 0.085258
0.038335 0.003335 0.233745 -0.301492 -0.301492 -0.904508 0.062532 0.108329
0.038335 0.003335 0.253745 -0.301492 -0.301492 0.904508 0.062532 0.119373
0.040000 -0.000000 0.233745 0.577349 -0.577349 -0.577349 0.037830 0.074899
0.038335 -0.000000 0.253745 -0.577349 -0.577349 0.577349 0.036910 0.085943
0.038335 -0.000000 0.233745 -0.577349 -0.577349 -0.577349 0.036910 0.074899
0.040000 -0.000000 0.253745 0.577349 -0.577349 0.577349 0.037830 0.085943
0.038335 0.003335 0.233745 -0.301492 -0.301492 -0.904508 0.031239 0.076741
0.038335 -0.000000 0.253745 -0.577349 -0.577349 0.577349 0.020195 0.074899
0.038335 0.003335 0.253745 -0.301492 -0.301492 0.904508 0.020195 0.076741
0.038335 -0.000000 0.233745 -0.577349 -0.577349 -0.577349 0.031239 0.074899
-0.443745 0.000000 -0.293745 0.000000 1.000000 0.000000 0.995000 0.329410
0.443745 -0.000000 0.293745 0.000000 1.000000 0.000000 0.504930 0.005000
0.443745 0.000000 -0.293745 0.000000 1.000000 0.000000 0.504930 0.329410
-0.443745 -0.000000 0.293745 0.000000 1.000000 0.000000 0.995000 0.005000
3 0 1 2
3 1 0 3
3 4 5 6
3 5 4 7
3 4 8 7
3 8 4 9
3 4 10 9
3 6 10 4
3 6 11 10
3 11 6 12
3 13 12 6
3 12 13 14
3 14 13 9
3 15 9 13
3 9 15 8
3 16 17 18
3 17 16 19
3 20 19 16
3 19 20 21
3 22 21 20
3 21 22 23
3 24 25 26
3 27 28 29
3 28 27 30
3 31 32 33
3 34 31 33
3 31 34 35
3 36 35 34
3 35 36 37
3 13 5 15
3 5 13 6
3 38 39 40
3 39 38 41
3 42 43 44
3 43 42 45
3 43 26 44
3 26 43 24
3 29 39 41
3 39 29 28
3 14 9 10
3 46 14 10
3 14 46 47
3 48 49 50
3 49 48 51
3 48 52 51
3 52 48 53
3 54 55 56
3 55 54 57
3 54 58 57
3 58 54 59
3 46 11 60
3 11 46 10
3 11 61 60
3 61 11 12
3 12 47 61
3 47 12 14
3 62 63 64
3 63 62 65
3 66 65 62
3 65 66 67
3 68 67 66
3 67 68 69
3 70 53 71
3 53 70 52
3 56 72 73
3 72 56 55
3 74 75 76
3 75 74 77
3 78 74 76
3 74 78 79
3 80 79 78
3 79 80 81
3 25 24 82
3 32 31 83
3 84 85 86
3 85 84 87
3 88 87 84
3 87 88 89
3 89 88 90
3 89 90 86
3 91 86 90
3 84 86 91
3 92 93 94
3 93 92 95
3 96 97 98
3 97 96 99
3 100 99 96
3 101 99 100
3 101 102 99
3 102 101 103
3 103 101 104
3 105 104 101
3 104 105 106
3 106 105 107
3 96 98 108
3 109 110 111
3 109 107 110
3 106 107 109
3 111 110 112
3 105 101 113
3 114 115 116
3 115 114 117
3 118 117 114
3 117 118 119
3 120 119 118
3 119 120 121
3 122 121 120
3 121 122 123
3 124 123 122
3 123 124 125
3 126 127 128
3 127 126 129
3 130 131 132
3 131 130 133
3 134 135 136
3 137 135 134
3 137 138 135
3 139 138 137
3 139 140 138
3 141 140 139
3 140 141 142
3 143 142 141
3 142 143 144
3 144 145 146
3 147 145 144
3 145 147 148
3 145 148 149
3 142 144 146
3 150 151 152
3 153 154 155
3 154 153 156
3 153 157 156
3 158 157 153
3 157 158 159
3 160 159 158
3 159 160 161
3 162 161 160
3 161 162 163
3 164 155 154
3 155 164 165
3 166 167 168
3 167 166 169
3 116 170 171
3 170 116 115
3 172 173 174
3 173 172 175
3 176 177 178
3 177 176 179
3 180 181 182
3 181 180 183
