ply
format ascii 1.0
comment Created by Blender 2.78 (sub 0) - www.blender.org, source file: 'game_hall_wall.blend'
element vertex 112
property float x
property float y
property float z
property float nx
property float ny
property float nz
property float s
property float t
element face 80
property list uchar uint vertex_indices
end_header
1.000000 -1.485000 -1.500000 0.707083 0.000000 -0.707083 0.503067 0.564150
1.000000 -1.515000 -1.450000 0.675832 -0.729209 0.107028 0.515365 0.571529
1.000000 -1.515000 -1.500000 0.577349 -0.577349 -0.577349 0.503067 0.571529
1.000000 -1.500000 -1.400000 0.594226 -0.480087 0.645253 0.527663 0.567840
1.000000 -1.485000 -1.400000 0.707083 0.000000 0.707083 0.527663 0.564150
-1.000000 -1.485000 -1.400000 -0.707083 0.000000 0.707083 0.548488 0.005000
1.000000 -1.500000 -1.400000 0.594226 -0.480087 0.645253 0.552177 0.496933
1.000000 -1.485000 -1.400000 0.707083 0.000000 0.707083 0.548488 0.496933
-1.000000 -1.500000 -1.400000 -0.594226 -0.480087 0.645253 0.552177 0.005000
-1.000000 -1.485000 -1.500000 -0.707083 0.000000 -0.707083 0.558988 0.571529
-1.000000 -1.500000 -1.400000 -0.594226 -0.480087 0.645253 0.534392 0.567840
-1.000000 -1.485000 -1.400000 -0.707083 0.000000 0.707083 0.534392 0.571529
-1.000000 -1.515000 -1.500000 -0.577349 -0.577349 -0.577349 0.558988 0.564150
-1.000000 -1.515000 -1.450000 -0.675832 -0.729209 0.107028 0.546690 0.564150
-1.000000 -1.515000 -1.500000 -0.577349 -0.577349 -0.577349 0.005000 0.618969
1.000000 -1.515000 -1.450000 0.675832 -0.729209 0.107028 0.496933 0.631267
-1.000000 -1.515000 -1.450000 -0.675832 -0.729209 0.107028 0.005000 0.631267
1.000000 -1.515000 -1.500000 0.577349 -0.577349 -0.577349 0.496933 0.618969
-1.000000 -1.515000 -1.500000 -0.577349 -0.577349 -0.577349 0.534392 0.496933
1.000000 -1.485000 -1.500000 0.707083 0.000000 -0.707083 0.541771 0.005000
1.000000 -1.515000 -1.500000 0.577349 -0.577349 -0.577349 0.534392 0.005000
-1.000000 -1.485000 -1.500000 -0.707083 0.000000 -0.707083 0.541771 0.496933
1.000000 -1.500000 -1.400000 0.594226 -0.480087 0.645253 0.496933 0.643566
-1.000000 -1.500000 -1.400000 -0.594226 -0.480087 0.645253 0.005000 0.643566
1.000000 -1.485000 -0.000000 0.000000 -1.000000 0.000000 0.496933 0.699487
-1.000000 -1.485000 -0.200000 0.000000 -1.000000 0.000000 0.005000 0.650294
1.000000 -1.485000 -0.200000 0.000000 -1.000000 0.000000 0.496933 0.650294
-1.000000 -1.485000 -0.000000 0.000000 -1.000000 0.000000 0.005000 0.699487
1.000000 -1.485000 0.200000 0.000000 -1.000000 0.000000 0.995000 0.558525
-1.000000 -1.485000 -0.000000 0.000000 -1.000000 0.000000 0.503067 0.509332
1.000000 -1.485000 -0.000000 0.000000 -1.000000 0.000000 0.995000 0.509332
-1.000000 -1.485000 0.200000 0.000000 -1.000000 0.000000 0.503067 0.558525
1.000000 -1.485000 1.450000 0.000000 -1.000000 0.000000 0.496933 0.613178
-1.000000 -1.485000 0.200000 0.000000 -1.000000 0.000000 0.005000 0.305720
1.000000 -1.485000 0.200000 0.000000 -1.000000 0.000000 0.496933 0.305720
-1.000000 -1.485000 1.450000 0.000000 -1.000000 0.000000 0.005000 0.613178
1.000000 -1.485000 -0.200000 0.000000 -1.000000 0.000000 0.496933 0.300160
-1.000000 -1.485000 -1.400000 0.000000 -1.000000 0.000000 0.005000 0.005000
1.000000 -1.485000 -1.400000 0.000000 -1.000000 0.000000 0.496933 0.005000
-1.000000 -1.485000 -0.200000 0.000000 -1.000000 0.000000 0.005000 0.300160
1.000000 -1.485000 1.450000 0.707083 0.000000 -0.707083 0.557885 0.019096
1.000000 -1.489220 1.454650 0.721274 -0.688375 0.076418 0.559029 0.020134
1.000000 -1.490030 1.450000 0.568804 -0.629475 -0.529283 0.557885 0.020333
1.000000 -1.488990 1.459370 0.720939 -0.692923 -0.008087 0.560190 0.020078
1.000000 -1.485000 1.500000 0.707083 0.000000 0.707083 0.570184 0.019096
1.000000 -1.489330 1.464080 0.721305 -0.686361 -0.092593 0.561349 0.020161
1.000000 -1.490250 1.468710 0.721427 -0.669454 -0.177068 0.562487 0.020388
1.000000 -1.491740 1.473190 0.721030 -0.642933 -0.258217 0.563589 0.020754
1.000000 -1.493760 1.477450 0.721122 -0.606677 -0.334513 0.564637 0.021251
1.000000 -1.496290 1.481440 0.721335 -0.560747 -0.406446 0.565619 0.021873
1.000000 -1.499290 1.485080 0.721213 -0.506455 -0.472579 0.566514 0.022611
1.000000 -1.502720 1.488330 0.721030 -0.445082 -0.530992 0.567313 0.023455
1.000000 -1.506520 1.491140 0.721397 -0.376232 -0.581378 0.568005 0.024389
1.000000 -1.510630 1.493450 0.721000 -0.302225 -0.623493 0.568573 0.025400
1.000000 -1.515000 1.495250 0.600696 -0.664266 -0.444807 0.569015 0.026475
1.000000 -1.515000 1.500000 0.577349 -0.577319 0.577349 0.570184 0.026475
-1.000000 -1.485000 1.500000 -0.707083 0.000000 0.707083 0.520296 0.005000
1.000000 -1.515000 1.500000 0.577349 -0.577319 0.577349 0.527675 0.496933
1.000000 -1.485000 1.500000 0.707083 0.000000 0.707083 0.520296 0.496933
-1.000000 -1.515000 1.500000 -0.577349 -0.577349 0.577349 0.527675 0.005000
-1.000000 -1.485000 1.500000 -0.707083 0.000000 0.707083 0.557885 0.012379
-1.000000 -1.515000 1.495250 -0.600726 -0.664266 -0.444807 0.559054 0.005000
-1.000000 -1.515000 1.500000 -0.577349 -0.577349 0.577349 0.557885 0.005000
-1.000000 -1.510630 1.493450 -0.721000 -0.302255 -0.623493 0.559497 0.006075
-1.000000 -1.506520 1.491140 -0.721397 -0.376232 -0.581378 0.560065 0.007086
-1.000000 -1.502720 1.488330 -0.721030 -0.445082 -0.530992 0.560756 0.008020
-1.000000 -1.499290 1.485080 -0.721183 -0.506455 -0.472579 0.561555 0.008864
-1.000000 -1.496290 1.481440 -0.721335 -0.560747 -0.406446 0.562450 0.009602
-1.000000 -1.493760 1.477450 -0.721122 -0.606647 -0.334544 0.563432 0.010224
-1.000000 -1.491740 1.473190 -0.721030 -0.642933 -0.258248 0.564480 0.010721
-1.000000 -1.490250 1.468710 -0.721427 -0.669424 -0.177099 0.565582 0.011088
-1.000000 -1.489330 1.464080 -0.721305 -0.686361 -0.092593 0.566721 0.011314
-1.000000 -1.488990 1.459370 -0.720939 -0.692923 -0.008087 0.567879 0.011398
-1.000000 -1.485000 1.450000 -0.707083 0.000000 -0.707083 0.570184 0.012379
-1.000000 -1.489220 1.454650 -0.721274 -0.688375 0.076418 0.569040 0.011341
-1.000000 -1.490030 1.450000 -0.568804 -0.629475 -0.529313 0.570184 0.011142
1.000000 -1.485000 1.450000 0.707083 0.000000 -0.707083 0.504304 0.005000
-1.000000 -1.490030 1.450000 -0.568804 -0.629475 -0.529313 0.503067 0.496933
-1.000000 -1.485000 1.450000 -0.707083 0.000000 -0.707083 0.504304 0.496933
1.000000 -1.490030 1.450000 0.568804 -0.629475 -0.529283 0.503067 0.005000
1.000000 -1.489220 1.454650 0.721274 -0.688375 0.076418 0.496933 0.706256
-1.000000 -1.490030 1.450000 -0.568804 -0.629475 -0.529313 0.005000 0.705113
1.000000 -1.490030 1.450000 0.568804 -0.629475 -0.529283 0.496933 0.705113
-1.000000 -1.489220 1.454650 -0.721274 -0.688375 0.076418 0.005000 0.706256
1.000000 -1.488990 1.459370 0.720939 -0.692923 -0.008087 0.496933 0.707417
-1.000000 -1.488990 1.459370 -0.720939 -0.692923 -0.008087 0.005000 0.707417
1.000000 -1.489330 1.464080 0.721305 -0.686361 -0.092593 0.496933 0.708576
-1.000000 -1.489330 1.464080 -0.721305 -0.686361 -0.092593 0.005000 0.708576
1.000000 -1.490250 1.468710 0.721427 -0.669454 -0.177068 0.496933 0.709715
-1.000000 -1.490250 1.468710 -0.721427 -0.669424 -0.177099 0.005000 0.709715
1.000000 -1.491740 1.473190 0.721030 -0.642933 -0.258217 0.496933 0.710817
-1.000000 -1.491740 1.473190 -0.721030 -0.642933 -0.258248 0.005000 0.710817
1.000000 -1.493760 1.477450 0.721122 -0.606677 -0.334513 0.496933 0.711864
-1.000000 -1.493760 1.477450 -0.721122 -0.606647 -0.334544 0.005000 0.711864
1.000000 -1.496290 1.481440 0.721335 -0.560747 -0.406446 0.496933 0.712846
-1.000000 -1.496290 1.481440 -0.721335 -0.560747 -0.406446 0.005000 0.712846
1.000000 -1.499290 1.485080 0.721213 -0.506455 -0.472579 0.496933 0.713741
-1.000000 -1.499290 1.485080 -0.721183 -0.506455 -0.472579 0.005000 0.713741
1.000000 -1.499290 1.485080 0.721213 -0.506455 -0.472579 0.514762 0.011265
-1.000000 -1.502720 1.488330 -0.721030 -0.445082 -0.530992 0.513919 0.503198
-1.000000 -1.499290 1.485080 -0.721183 -0.506455 -0.472579 0.514762 0.503198
1.000000 -1.502720 1.488330 0.721030 -0.445082 -0.530992 0.513919 0.011265
-1.000000 -1.506520 1.491140 -0.721397 -0.376232 -0.581378 0.512984 0.503198
1.000000 -1.506520 1.491140 0.721397 -0.376232 -0.581378 0.512984 0.011265
-1.000000 -1.510630 1.493450 -0.721000 -0.302255 -0.623493 0.511973 0.503198
1.000000 -1.510630 1.493450 0.721000 -0.302225 -0.623493 0.511973 0.011265
-1.000000 -1.515000 1.495250 -0.600726 -0.664266 -0.444807 0.510898 0.503198
1.000000 -1.515000 1.495250 0.600696 -0.664266 -0.444807 0.510898 0.011265
1.000000 -1.515000 1.500000 0.577349 -0.577319 0.577349 0.496933 0.721943
-1.000000 -1.515000 1.495250 -0.600726 -0.664266 -0.444807 0.005000 0.720775
1.000000 -1.515000 1.495250 0.600696 -0.664266 -0.444807 0.496933 0.720775
-1.000000 -1.515000 1.500000 -0.577349 -0.577349 0.577349 0.005000 0.721943
3 0 1 2
3 1 0 3
3 3 0 4
3 5 6 7
3 6 5 8
3 9 10 11
3 12 10 9
3 10 12 13
3 14 15 16
3 15 14 17
3 18 19 20
3 19 18 21
3 22 16 15
3 16 22 23
3 24 25 26
3 25 24 27
3 28 29 30
3 29 28 31
3 32 33 34
3 33 32 35
3 36 37 38
3 37 36 39
3 40 41 42
3 41 40 43
3 44 43 40
3 44 45 43
3 44 46 45
3 44 47 46
3 44 48 47
3 44 49 48
3 44 50 49
3 44 51 50
3 44 52 51
3 44 53 52
3 44 54 53
3 54 44 55
3 56 57 58
3 57 56 59
3 60 61 62
3 61 60 63
3 63 60 64
3 64 60 65
3 65 60 66
3 66 60 67
3 67 60 68
3 68 60 69
3 69 60 70
3 70 60 71
3 71 60 72
3 73 72 60
3 73 74 72
3 74 73 75
3 76 77 78
3 77 76 79
3 80 81 82
3 81 80 83
3 84 83 80
3 83 84 85
3 86 85 84
3 85 86 87
3 88 87 86
3 87 88 89
3 90 89 88
3 89 90 91
3 92 91 90
3 91 92 93
3 94 93 92
3 93 94 95
3 96 95 94
3 95 96 97
3 98 99 100
3 99 98 101
3 101 102 99
3 102 101 103
3 103 104 102
3 104 103 105
3 105 106 104
3 106 105 107
3 108 109 110
3 109 108 111
