# Blender v2.78 (sub 0) OBJ File: 'game_hall_wall_optimized.blend'
# www.blender.org
mtllib game_hall_wall.mtl
o Mesh1_skpB0D7_1_Model
v 1.000000 -1.421415 -0.015001
v 1.000000 -1.421415 -0.000001
v 1.000000 -1.471415 0.014999
v -1.000000 -1.421415 -0.015001
v -1.000000 -1.421415 -0.000001
v -1.000000 -1.471415 0.014999
v -1.000000 -1.521415 0.014999
v -1.000000 -1.521415 -0.015001
v 1.000000 -1.521415 -0.015001
v 1.000000 -1.521415 0.014999
v -1.000000 -0.221415 -0.015001
v 1.000000 -0.221415 -0.015001
v 1.000000 -0.021415 -0.015001
v -1.000000 -0.021415 -0.015001
v -1.000000 0.178585 -0.015001
v 1.000000 0.178585 -0.015001
v 1.000000 1.428585 -0.015000
v -1.000000 1.428585 -0.015000
v -1.000000 1.428585 -0.009970
v 1.000000 1.428585 -0.009970
v 1.000000 1.433235 -0.010780
v 1.000000 1.478585 -0.015000
v 1.000000 1.437955 -0.011010
v 1.000000 1.442665 -0.010670
v 1.000000 1.447295 -0.009750
v 1.000000 1.451775 -0.008260
v 1.000000 1.456035 -0.006240
v 1.000000 1.460025 -0.003710
v 1.000000 1.463665 -0.000710
v 1.000000 1.466915 0.002720
v 1.000000 1.469725 0.006520
v 1.000000 1.472035 0.010630
v 1.000000 1.473835 0.015000
v 1.000000 1.478585 0.015000
v -1.000000 1.478585 -0.015000
v -1.000000 1.478585 0.015000
v -1.000000 1.473835 0.015000
v -1.000000 1.472035 0.010630
v -1.000000 1.469725 0.006520
v -1.000000 1.466915 0.002720
v -1.000000 1.463665 -0.000710
v -1.000000 1.460025 -0.003710
v -1.000000 1.456035 -0.006240
v -1.000000 1.451775 -0.008260
v -1.000000 1.447295 -0.009750
v -1.000000 1.442665 -0.010670
v -1.000000 1.437955 -0.011010
v -1.000000 1.433235 -0.010780
vt 0.5277 0.5642
vt 0.5277 0.5678
vt 0.5154 0.5715
vt 0.5031 0.5715
vt 0.5485 0.0050
vt 0.5522 0.4969
vt 0.5485 0.4969
vt 0.5522 0.0050
vt 0.5344 0.5715
vt 0.5467 0.5641
vt 0.5344 0.5678
vt 0.5590 0.5641
vt 0.5590 0.5715
vt 0.5418 0.0050
vt 0.5344 0.4969
vt 0.5418 0.4969
vt 0.5344 0.0050
vt 0.5031 0.5641
vt 0.4969 0.6313
vt 0.0050 0.6190
vt 0.4969 0.6190
vt 0.0050 0.6313
vt 0.4969 0.6436
vt 0.0050 0.6436
vt 0.0050 0.3002
vt 0.0050 0.0050
vt 0.4969 0.0050
vt 0.4969 0.3002
vt 0.4969 0.6995
vt 0.0050 0.6503
vt 0.4969 0.6503
vt 0.0050 0.6995
vt 0.5031 0.5585
vt 0.5031 0.5093
vt 0.9950 0.5093
vt 0.9950 0.5585
vt 0.4969 0.6132
vt 0.0050 0.3057
vt 0.4969 0.3057
vt 0.0050 0.6132
vt 0.5043 0.0050
vt 0.5031 0.4969
vt 0.5043 0.4969
vt 0.5031 0.0050
vt 0.5579 0.0191
vt 0.5590 0.0201
vt 0.5579 0.0203
vt 0.5702 0.0191
vt 0.5602 0.0201
vt 0.5613 0.0202
vt 0.5625 0.0204
vt 0.5636 0.0208
vt 0.5646 0.0213
vt 0.5656 0.0219
vt 0.5665 0.0226
vt 0.5673 0.0235
vt 0.5680 0.0244
vt 0.5686 0.0254
vt 0.5690 0.0265
vt 0.5702 0.0265
vt 0.5203 0.0050
vt 0.5277 0.4969
vt 0.5203 0.4969
vt 0.5277 0.0050
vt 0.5579 0.0124
vt 0.5591 0.0050
vt 0.5579 0.0050
vt 0.5595 0.0061
vt 0.5601 0.0071
vt 0.5608 0.0080
vt 0.5616 0.0089
vt 0.5625 0.0096
vt 0.5634 0.0102
vt 0.5645 0.0107
vt 0.5656 0.0111
vt 0.5667 0.0113
vt 0.5679 0.0114
vt 0.5690 0.0113
vt 0.5702 0.0124
vt 0.5702 0.0111
vt 0.0050 0.7051
vt 0.4969 0.7063
vt 0.0050 0.7063
vt 0.4969 0.7051
vt 0.4969 0.7074
vt 0.0050 0.7074
vt 0.4969 0.7086
vt 0.0050 0.7086
vt 0.4969 0.7097
vt 0.0050 0.7097
vt 0.4969 0.7108
vt 0.0050 0.7108
vt 0.4969 0.7119
vt 0.0050 0.7119
vt 0.4969 0.7128
vt 0.0050 0.7128
vt 0.4969 0.7137
vt 0.0050 0.7137
vt 0.5148 0.0113
vt 0.5139 0.5032
vt 0.5148 0.5032
vt 0.5139 0.0113
vt 0.5130 0.5032
vt 0.5130 0.0113
vt 0.5120 0.5032
vt 0.5120 0.0113
vt 0.5109 0.5032
vt 0.5109 0.0113
vt 0.4969 0.7219
vt 0.0050 0.7208
vt 0.4969 0.7208
vt 0.0050 0.7219
vn 1.0000 0.0000 0.0000
vn 0.0000 1.0000 0.0000
vn -1.0000 0.0000 0.0000
vn 0.0000 -1.0000 0.0000
vn 0.0000 0.1452 0.9894
vn 0.0000 -0.0000 1.0000
vn 0.0000 0.2873 0.9578
vn 0.0000 0.1716 0.9852
vn 0.0000 0.1104 0.9939
vn 0.0000 -0.0117 0.9999
vn 0.0000 -0.1337 0.9910
vn 0.0000 -0.2557 0.9667
vn 0.0000 -0.3727 0.9279
vn 0.0000 -0.4829 0.8757
vn 0.0000 -0.5869 0.8097
vn 0.0000 -0.6823 0.7311
vn 0.0000 -0.6822 0.7311
vn 0.0000 -0.7664 0.6424
vn 0.0000 -0.8395 0.5433
vn 0.0000 -0.8998 0.4362
vn 0.0000 -0.9246 0.3808
vn 0.0000 -0.9246 0.3809
usemtl _auto_
s 1
f 1/1/1 2/2/1 3/3/1
f 1/1/1 3/3/1 10/4/1
s 2
f 4/5/2 2/6/2 1/7/2
f 2/6/2 4/5/2 5/8/2
s 3
f 4/9/3 6/10/3 5/11/3
f 4/9/3 7/12/3 6/10/3
f 8/13/3 7/12/3 4/9/3
s 4
f 9/14/4 7/15/4 8/16/4
s 5
f 7/15/4 9/14/4 10/17/4
s 6
f 9/18/1 1/1/1 10/4/1
s 7
f 3/19/5 7/20/6 10/21/6
f 7/20/6 3/19/5 6/22/5
f 2/23/7 6/22/5 3/19/5
f 6/22/5 2/23/7 5/24/7
s 8
f 11/25/6 4/26/6 1/27/6
f 11/25/6 1/27/6 12/28/6
f 13/29/6 11/30/6 12/31/6
f 14/32/6 11/30/6 13/29/6
f 15/33/6 14/34/6 13/35/6
f 15/33/6 13/35/6 16/36/6
f 17/37/6 15/38/6 16/39/6
s 9
f 18/40/6 15/38/6 17/37/6
s 10
f 17/41/4 19/42/4 18/43/4
f 19/42/4 17/41/4 20/44/4
s 11
f 17/45/1 21/46/1 20/47/1
f 17/45/1 22/48/1 21/46/1
s 12
f 22/48/1 23/49/1 21/46/1
f 22/48/1 24/50/1 23/49/1
f 22/48/1 25/51/1 24/50/1
f 22/48/1 26/52/1 25/51/1
f 22/48/1 27/53/1 26/52/1
f 22/48/1 28/54/1 27/53/1
f 22/48/1 29/55/1 28/54/1
f 22/48/1 30/56/1 29/55/1
f 22/48/1 31/57/1 30/56/1
f 22/48/1 32/58/1 31/57/1
f 22/48/1 33/59/1 32/58/1
f 22/48/1 34/60/1 33/59/1
s 13
f 35/61/2 34/62/2 22/63/2
s 14
f 34/62/2 35/61/2 36/64/2
s 15
f 35/65/3 37/66/3 36/67/3
f 35/65/3 38/68/3 37/66/3
f 35/65/3 39/69/3 38/68/3
f 35/65/3 40/70/3 39/69/3
f 35/65/3 41/71/3 40/70/3
f 35/65/3 42/72/3 41/71/3
f 35/65/3 43/73/3 42/72/3
f 35/65/3 44/74/3 43/73/3
f 35/65/3 45/75/3 44/74/3
f 35/65/3 46/76/3 45/75/3
f 35/65/3 47/77/3 46/76/3
f 35/65/3 48/78/3 47/77/3
f 18/79/3 48/78/3 35/65/3
s 16
f 18/79/3 19/80/3 48/78/3
s 17
f 19/81/8 21/82/9 48/83/9
f 21/82/9 19/81/8 20/84/8
f 23/85/10 48/83/9 21/82/9
f 48/83/9 23/85/10 47/86/10
f 24/87/11 47/86/10 23/85/10
f 47/86/10 24/87/11 46/88/11
f 25/89/12 46/88/11 24/87/11
f 46/88/11 25/89/12 45/90/12
f 26/91/13 45/90/12 25/89/12
f 45/90/12 26/91/13 44/92/13
f 27/93/14 44/92/13 26/91/13
f 44/92/13 27/93/14 43/94/14
f 28/95/15 43/94/14 27/93/14
f 43/94/14 28/95/15 42/96/15
f 29/97/16 42/96/15 28/95/15
f 42/96/15 29/97/16 41/98/17
f 29/99/16 40/100/18 41/101/17
f 40/100/18 29/99/16 30/102/18
f 30/102/18 39/103/19 40/100/18
f 39/103/19 30/102/18 31/104/19
f 31/104/19 38/105/20 39/103/19
f 38/105/20 31/104/19 32/106/20
f 32/106/20 37/107/21 38/105/20
f 37/107/21 32/106/20 33/108/22
s 18
f 34/109/6 37/110/6 33/111/6
f 37/110/6 34/109/6 36/112/6
