# Blender v2.78 (sub 0) OBJ File: 'game_hall_picture_02_optimized.blend'
# www.blender.org
mtllib game_hall_picture_02.mtl
o Mesh1_skp4869_1_Model
v 0.429388 0.274388 0.005000
v -0.429388 -0.284388 0.005000
v 0.429388 -0.284388 0.005000
v -0.429388 0.274388 0.005000
v -0.429388 0.274388 0.010000
v 0.429388 0.274388 0.010000
v 0.429388 -0.284388 0.010000
v -0.429388 -0.284388 0.010000
v -0.430058 -0.285058 0.012500
v -0.430058 0.275058 0.012500
v 0.430058 0.275058 0.012500
v 0.430058 -0.285058 0.012500
v -0.431888 -0.286888 0.014330
v 0.431888 -0.286888 0.014330
v -0.434388 -0.289388 0.015000
v 0.434388 -0.289388 0.015000
v -0.445000 -0.300000 0.015000
v 0.445000 -0.300000 0.015000
v -0.447500 -0.302500 0.014330
v 0.447500 -0.302500 0.014330
v -0.449330 -0.304330 0.012500
v 0.449330 -0.304330 0.012500
v 0.450000 -0.305000 0.010000
v -0.450000 -0.305000 0.010000
v -0.450000 0.295000 0.010000
v -0.449330 0.294330 0.012500
v -0.447500 0.292500 0.014330
v -0.445000 0.290000 0.015000
v -0.434388 0.279388 0.015000
v -0.431888 0.276888 0.014330
v 0.431888 0.276888 0.014330
v 0.434388 0.279388 0.015000
v 0.445000 0.290000 0.015000
v 0.447500 0.292500 0.014330
v 0.449330 0.294330 0.012500
v 0.450000 0.295000 0.010000
v 0.450000 0.295000 -0.005000
v 0.450000 -0.305000 -0.005000
v -0.450000 -0.305000 -0.005000
v -0.450000 0.295000 -0.005000
v 0.443745 0.288745 -0.005000
v -0.443745 0.288745 -0.005000
v 0.038335 0.248745 -0.005000
v 0.040000 0.248745 -0.005000
v 0.040000 0.228745 -0.005000
v 0.443745 -0.298745 -0.005000
v -0.443745 -0.298745 -0.005000
v -0.040000 0.228745 -0.005000
v -0.040000 0.248745 -0.005000
v -0.038335 0.248745 -0.005000
v -0.038335 0.228745 -0.005000
v 0.038335 0.228745 -0.005000
v 0.038335 0.248745 -0.008335
v 0.038335 0.228745 -0.008335
v 0.019607 0.228745 -0.008335
v 0.019607 0.248745 -0.008335
v 0.020000 0.248745 -0.010000
v 0.010000 0.248745 -0.015000
v 0.009607 0.248745 -0.013335
v -0.009607 0.248745 -0.013335
v -0.010000 0.248745 -0.015000
v -0.019607 0.248745 -0.008335
v -0.020000 0.248745 -0.010000
v -0.038335 0.248745 -0.008335
v -0.040000 0.248745 -0.010000
v -0.040000 0.228745 -0.010000
v -0.020000 0.228745 -0.010000
v -0.010000 0.228745 -0.015000
v 0.010000 0.228745 -0.015000
v 0.020000 0.228745 -0.010000
v 0.040000 0.228745 -0.010000
v 0.040000 0.248745 -0.010000
v 0.009607 0.228745 -0.013335
v -0.009607 0.228745 -0.013335
v -0.019607 0.228745 -0.008335
v -0.038335 0.228745 -0.008335
vt 0.4883 0.6570
vt 0.0141 0.3484
vt 0.4883 0.3484
vt 0.0141 0.6570
vt 0.5298 0.3361
vt 0.5271 0.8103
vt 0.5298 0.8103
vt 0.5271 0.3361
vt 0.0216 0.0588
vt 0.3301 0.0560
vt 0.0216 0.0560
vt 0.3301 0.0588
vt 0.5353 0.3361
vt 0.5381 0.8103
vt 0.5353 0.8103
vt 0.5381 0.3361
vt 0.3301 0.0643
vt 0.0216 0.0670
vt 0.0216 0.0643
vt 0.3301 0.0670
vt 0.0212 0.0684
vt 0.3305 0.0684
vt 0.5257 0.3358
vt 0.5257 0.8107
vt 0.3305 0.0546
vt 0.0212 0.0546
vt 0.5395 0.8107
vt 0.5395 0.3358
vt 0.5405 0.3347
vt 0.5405 0.8117
vt 0.0122 0.0122
vt 0.4906 0.0136
vt 0.0136 0.0136
vt 0.4920 0.0122
vt 0.0064 0.0064
vt 0.4978 0.0064
vt 0.0050 0.0050
vt 0.4992 0.0050
vt 0.5470 0.8313
vt 0.5460 0.3361
vt 0.5460 0.8303
vt 0.5470 0.3351
vt 0.5483 0.3347
vt 0.5483 0.8317
vt 0.3511 0.0212
vt 0.0202 0.0226
vt 0.3515 0.0226
vt 0.0206 0.0212
vt 0.3501 0.0202
vt 0.0216 0.0202
vt 0.0050 0.3336
vt 0.0064 0.3322
vt 0.0064 0.3321
vt 0.0122 0.3263
vt 0.0136 0.3249
vt 0.3315 0.0694
vt 0.0202 0.0694
vt 0.5247 0.3347
vt 0.5247 0.8117
vt 0.0202 0.0536
vt 0.3315 0.0536
vt 0.4920 0.3263
vt 0.4906 0.3249
vt 0.4978 0.3321
vt 0.4992 0.3336
vt 0.4978 0.3322
vt 0.0216 0.0476
vt 0.3511 0.0466
vt 0.3501 0.0476
vt 0.0206 0.0466
vt 0.3515 0.0452
vt 0.0202 0.0452
vt 0.3515 0.0369
vt 0.0202 0.0369
vt 0.5566 0.3347
vt 0.5566 0.8317
vt 0.0202 0.0309
vt 0.3515 0.0309
vt 0.5163 0.8317
vt 0.5080 0.3347
vt 0.5163 0.3347
vt 0.5080 0.8317
vt 0.5176 0.3351
vt 0.5176 0.8313
vt 0.5186 0.3361
vt 0.5186 0.8303
vt 0.0085 0.3428
vt 0.5020 0.3393
vt 0.0050 0.3393
vt 0.4985 0.3428
vt 0.5049 0.0050
vt 0.7288 0.0271
vt 0.9950 0.0050
vt 0.7279 0.0271
vt 0.7279 0.0381
vt 0.5049 0.3294
vt 0.0085 0.6672
vt 0.0050 0.6706
vt 0.4985 0.6672
vt 0.5020 0.6706
vt 0.7721 0.0381
vt 0.9950 0.3294
vt 0.7721 0.0271
vt 0.7711 0.0271
vt 0.7711 0.0381
vt 0.7288 0.0381
vt 0.0202 0.0767
vt 0.0312 0.0749
vt 0.0202 0.0749
vt 0.0312 0.0767
vt 0.0625 0.1194
vt 0.0522 0.1083
vt 0.0625 0.1083
vt 0.0522 0.1194
vt 0.0929 0.1080
vt 0.0938 0.1078
vt 0.0938 0.1182
vt 0.0901 0.1025
vt 0.0910 0.1023
vt 0.0910 0.0917
vt 0.0901 0.0915
vt 0.0938 0.0862
vt 0.0929 0.0859
vt 0.0938 0.0758
vt 0.0929 0.0749
vt 0.0956 0.0758
vt 0.0956 0.0749
vt 0.0929 0.1191
vt 0.0956 0.1191
vt 0.0956 0.1182
vt 0.0445 0.0853
vt 0.0556 0.0825
vt 0.0445 0.0825
vt 0.0556 0.0853
vt 0.0644 0.0916
vt 0.0533 0.1027
vt 0.0644 0.1027
vt 0.0533 0.0916
vt 0.0478 0.1027
vt 0.0478 0.0916
vt 0.0368 0.1027
vt 0.0368 0.0916
vt 0.0312 0.0916
vt 0.0312 0.1027
vt 0.0202 0.1027
vt 0.0202 0.0916
vt 0.0202 0.0853
vt 0.0312 0.0825
vt 0.0312 0.0853
vt 0.0202 0.0825
vt 0.0719 0.0758
vt 0.0746 0.0749
vt 0.0719 0.0749
vt 0.0737 0.0758
vt 0.0746 0.0859
vt 0.0737 0.0862
vt 0.0774 0.0915
vt 0.0765 0.0917
vt 0.0765 0.1023
vt 0.0774 0.1025
vt 0.0737 0.1078
vt 0.0746 0.1080
vt 0.0737 0.1182
vt 0.0746 0.1191
vt 0.0719 0.1191
vt 0.0719 0.1182
vt 0.0571 0.0749
vt 0.0460 0.0767
vt 0.0460 0.0749
vt 0.0571 0.0767
vt 0.0202 0.1083
vt 0.0305 0.1194
vt 0.0202 0.1194
vt 0.0305 0.1083
vt 0.0361 0.1083
vt 0.0361 0.1194
vt 0.0467 0.1194
vt 0.0467 0.1083
vn 0.0000 -0.0000 1.0000
vn 0.0000 -1.0000 0.0000
vn 0.0000 -0.9914 0.1306
vn -1.0000 0.0000 0.0000
vn -0.9914 -0.0000 0.1305
vn 0.0000 1.0000 0.0000
vn 0.0000 0.9914 0.1306
vn 1.0000 -0.0000 0.0000
vn 0.9914 -0.0000 0.1305
vn 0.8660 -0.0000 0.5000
vn 0.0000 -0.8660 0.5000
vn -0.8660 -0.0000 0.5000
vn 0.0000 0.8660 0.5000
vn 0.2673 0.2673 0.9258
vn -0.2673 0.2673 0.9258
vn 0.0656 0.0656 0.9957
vn -0.0656 0.0656 0.9957
vn -0.0656 -0.0656 0.9957
vn 0.0656 -0.0656 0.9957
vn -0.2673 -0.2673 0.9258
vn 0.2673 -0.2673 0.9258
vn 0.0000 -0.9914 0.1305
vn 0.0656 -0.0655 0.9957
vn -0.0000 0.9914 0.1305
vn -0.0000 0.0000 -1.0000
vn -0.4472 0.0000 -0.8944
vn 0.4472 0.0000 -0.8944
vn 0.4472 -0.0000 0.8944
vn -0.4472 -0.0000 0.8944
usemtl _auto_
s 1
f 1/1/1 2/2/1 3/3/1
f 2/2/1 1/1/1 4/4/1
s 2
f 1/5/2 5/6/3 4/7/2
f 5/6/3 1/5/2 6/8/3
f 1/9/4 7/10/5 6/11/5
f 7/10/5 1/9/4 3/12/4
f 2/13/6 7/14/7 3/15/6
f 7/14/7 2/13/6 8/16/7
f 4/17/8 8/18/9 2/19/8
f 8/18/9 4/17/8 5/20/9
f 5/20/9 9/21/10 8/18/9
f 9/21/10 5/20/9 10/22/10
f 5/6/3 11/23/11 10/24/11
f 11/23/11 5/6/3 6/8/3
f 6/11/5 12/25/12 11/26/12
f 12/25/12 6/11/5 7/10/5
f 8/16/7 12/27/13 7/14/7
f 12/27/13 8/16/7 9/28/13
f 13/29/14 12/27/13 9/28/13
f 12/27/13 13/29/14 14/30/15
f 15/31/16 14/32/15 13/33/14
f 14/32/15 15/31/16 16/34/17
f 17/35/18 16/34/17 15/31/16
f 16/34/17 17/35/18 18/36/19
f 19/37/20 18/36/19 17/35/18
f 18/36/19 19/37/20 20/38/21
f 21/39/11 20/40/21 19/41/20
f 20/40/21 21/39/11 22/42/11
f 21/39/11 23/43/22 22/42/11
f 23/43/22 21/39/11 24/44/22
f 21/45/12 25/46/5 24/47/5
f 25/46/5 21/45/12 26/48/12
f 19/49/20 26/48/12 21/45/12
f 26/48/12 19/49/20 27/50/15
f 17/35/18 27/51/15 19/37/20
f 27/51/15 17/35/18 28/52/17
f 15/31/16 28/53/17 17/35/18
f 28/53/17 15/31/16 29/54/23
f 13/33/14 29/54/23 15/31/16
f 29/54/23 13/33/14 30/55/21
f 9/21/10 30/56/21 13/57/14
f 30/56/21 9/21/10 10/22/10
f 10/24/11 31/58/20 30/59/21
f 31/58/20 10/24/11 11/23/11
f 12/25/12 31/60/20 11/26/12
f 31/60/20 12/25/12 14/61/15
f 14/32/15 32/62/18 31/63/20
f 32/62/18 14/32/15 16/34/17
f 16/34/17 33/64/16 32/62/18
f 33/64/16 16/34/17 18/36/19
f 18/36/19 34/65/14 33/66/16
f 34/65/14 18/36/19 20/38/21
f 20/67/21 35/68/10 34/69/14
f 35/68/10 20/67/21 22/70/10
f 22/70/10 36/71/9 35/68/10
f 36/71/9 22/70/10 23/72/9
f 23/72/9 37/73/8 36/71/9
f 37/73/8 23/72/9 38/74/8
f 24/44/22 38/75/2 23/43/22
f 38/75/2 24/44/22 39/76/2
f 24/47/5 40/77/4 39/78/4
f 40/77/4 24/47/5 25/46/5
f 36/79/24 40/80/6 25/81/24
f 40/80/6 36/79/24 37/82/6
f 26/83/13 36/79/24 25/81/24
f 36/79/24 26/83/13 35/84/13
f 27/85/15 35/84/13 26/83/13
f 35/84/13 27/85/15 34/86/14
f 28/52/17 34/65/14 27/51/15
f 34/65/14 28/52/17 33/66/16
f 29/54/23 33/64/16 28/53/17
f 33/64/16 29/54/23 32/62/18
f 30/55/21 32/62/18 29/54/23
f 32/62/18 30/55/21 31/63/20
s 3
f 41/87/25 40/88/25 37/89/25
f 40/88/25 41/87/25 42/90/25
f 41/91/25 43/92/25 42/93/25
f 41/91/25 44/94/25 43/92/25
f 41/91/25 45/95/25 44/94/25
f 41/91/25 46/96/25 45/95/25
f 37/89/25 46/97/25 41/87/25
f 46/97/25 37/89/25 38/98/25
f 38/98/25 47/99/25 46/97/25
f 47/99/25 38/98/25 39/100/25
f 40/88/25 47/99/25 39/100/25
f 47/99/25 40/88/25 42/90/25
f 42/93/25 48/101/25 47/102/25
f 42/93/25 49/103/25 48/101/25
f 42/93/25 50/104/25 49/103/25
f 42/93/25 43/92/25 50/104/25
f 43/92/25 51/105/25 50/104/25
f 43/92/25 52/106/25 51/105/25
f 51/105/25 47/102/25 48/101/25
f 52/106/25 47/102/25 51/105/25
f 52/106/25 46/96/25 47/102/25
f 45/95/25 46/96/25 52/106/25
s 4
f 53/107/4 52/108/4 43/109/4
f 52/108/4 53/107/4 54/110/4
s 5
f 53/111/1 55/112/1 54/113/1
f 55/112/1 53/111/1 56/114/1
s 6
f 57/115/6 56/116/6 53/117/6
f 58/118/6 56/116/6 57/115/6
f 58/118/6 59/119/6 56/116/6
f 58/118/6 60/120/6 59/119/6
f 61/121/6 60/120/6 58/118/6
f 61/121/6 62/122/6 60/120/6
f 63/123/6 62/122/6 61/121/6
f 63/123/6 64/124/6 62/122/6
f 65/125/6 64/124/6 63/123/6
f 65/125/6 50/126/6 64/124/6
f 50/126/6 65/125/6 49/127/6
f 57/115/6 53/117/6 72/128/6
f 72/128/6 53/117/6 44/129/6
f 44/129/6 53/117/6 43/130/6
s 7
f 65/131/4 48/132/4 49/133/4
f 48/132/4 65/131/4 66/134/4
s 8
f 65/135/25 67/136/25 66/137/25
f 67/136/25 65/135/25 63/138/25
s 9
f 63/138/26 68/139/26 67/136/26
f 68/139/26 63/138/26 61/140/26
s 10
f 61/140/25 69/141/25 68/139/25
f 69/141/25 61/140/25 58/142/25
s 11
f 57/143/27 69/141/27 58/142/27
f 69/141/27 57/143/27 70/144/27
s 12
f 57/143/25 71/145/25 70/144/25
f 71/145/25 57/143/25 72/146/25
s 13
f 45/147/8 72/148/8 44/149/8
f 72/148/8 45/147/8 71/150/8
s 14
f 52/151/2 71/152/2 45/153/2
f 54/154/2 71/152/2 52/151/2
f 54/154/2 70/155/2 71/152/2
f 55/156/2 70/155/2 54/154/2
f 55/156/2 69/157/2 70/155/2
f 73/158/2 69/157/2 55/156/2
f 74/159/2 69/157/2 73/158/2
f 74/159/2 68/160/2 69/157/2
f 75/161/2 68/160/2 74/159/2
f 75/161/2 67/162/2 68/160/2
f 76/163/2 67/162/2 75/161/2
f 76/163/2 66/164/2 67/162/2
f 66/164/2 76/163/2 48/165/2
f 51/166/2 48/165/2 76/163/2
s 15
f 64/167/8 51/168/8 76/169/8
f 51/168/8 64/167/8 50/170/8
s 16
f 76/171/1 62/172/1 64/173/1
f 62/172/1 76/171/1 75/174/1
s 17
f 74/175/28 62/172/28 75/174/28
f 62/172/28 74/175/28 60/176/28
s 18
f 74/175/1 59/177/1 60/176/1
f 59/177/1 74/175/1 73/178/1
s 19
f 73/178/29 56/114/29 59/177/29
f 56/114/29 73/178/29 55/112/29
