# Blender v2.78 (sub 0) OBJ File: 'game_hall_picture_01_optimized.blend'
# www.blender.org
mtllib game_hall_picture_01.mtl
o Mesh1_skp7A5_1_Model
v -0.040000 0.393790 -0.010000
v -0.040000 0.363790 0.000000
v -0.040000 0.393790 0.000000
v -0.040000 0.368790 -0.010000
v 0.040000 0.368790 -0.010000
v 0.040000 0.393790 -0.010000
v -0.037500 0.393790 -0.008944
v -0.037500 0.393790 0.000000
v -0.293790 0.453790 0.000000
v 0.037500 0.393790 0.000000
v 0.293790 0.453790 0.000000
v 0.040000 0.393790 0.000000
v 0.040000 0.363790 0.000000
v 0.293790 -0.433790 -0.000000
v 0.293790 0.453790 -0.010000
v 0.293790 -0.433790 -0.010000
v 0.300000 0.460000 -0.010000
v 0.300000 -0.440000 -0.010000
v 0.300000 -0.440000 0.010000
v 0.300000 0.460000 0.010000
v -0.300000 0.460000 -0.010000
v -0.300000 0.460000 0.010000
v -0.300000 -0.440000 0.010000
v -0.300000 -0.440000 -0.010000
v -0.293790 -0.433790 -0.010000
v -0.293790 0.453790 -0.010000
v -0.293790 -0.433790 -0.000000
v 0.293790 -0.433790 0.010000
v -0.293790 -0.433790 0.010000
v -0.293790 -0.433790 0.008482
v 0.293790 -0.433790 0.008482
v 0.293790 0.453790 0.008482
v 0.293790 0.453790 0.010000
v -0.293790 0.453790 0.010000
v -0.293790 0.453790 0.008482
v 0.037500 0.363790 0.000000
v 0.037500 0.368262 -0.008944
v -0.037500 0.368262 -0.008944
v -0.037500 0.363790 0.000000
v 0.037500 0.393790 -0.008944
vt 0.0970 0.0544
vt 0.1111 0.0497
vt 0.0970 0.0497
vt 0.1088 0.0544
vt 0.1150 0.0326
vt 0.0773 0.0444
vt 0.1150 0.0444
vt 0.0773 0.0326
vt 0.0773 0.1035
vt 0.0778 0.1047
vt 0.0773 0.1413
vt 0.0820 0.1047
vt 0.0820 0.1035
vt 0.1154 0.0692
vt 0.1201 0.0681
vt 0.1154 0.0681
vt 0.1196 0.0692
vt 0.1196 0.1047
vt 0.0838 0.0237
vt 0.0980 0.0195
vt 0.0838 0.0195
vt 0.0959 0.0237
vt 0.0773 0.0985
vt 0.1127 0.0865
vt 0.0773 0.0865
vt 0.1127 0.0985
vt 0.0980 0.0720
vt 0.0838 0.0762
vt 0.0859 0.0720
vt 0.0778 0.1401
vt 0.2825 0.4346
vt 0.1614 0.4630
vt 0.1626 0.4630
vt 0.1260 0.4630
vt 0.0050 0.4346
vt 0.1249 0.4630
vt 0.1249 0.4771
vt 0.0050 0.8538
vt 0.1260 0.4771
vt 0.2825 0.8538
vt 0.1614 0.4771
vt 0.1626 0.4771
vt 0.5700 0.4919
vt 0.9891 0.4872
vt 0.5700 0.4872
vt 0.9891 0.4919
vt 0.0050 0.0050
vt 0.0079 0.4271
vt 0.0079 0.0080
vt 0.0050 0.4300
vt 0.2883 0.0050
vt 0.2854 0.4271
vt 0.2883 0.4300
vt 0.2854 0.0079
vt 0.9950 0.4346
vt 0.5700 0.4441
vt 0.5700 0.4346
vt 0.9950 0.4441
vt 0.0457 0.0129
vt 0.0552 0.2962
vt 0.0457 0.2962
vt 0.0552 0.0129
vt 0.5700 0.4717
vt 0.9950 0.4622
vt 0.5700 0.4622
vt 0.9950 0.4717
vt 0.0715 0.0129
vt 0.0668 0.2904
vt 0.0715 0.2904
vt 0.0668 0.0129
vt 0.5700 0.4814
vt 0.9891 0.4767
vt 0.9891 0.4814
vt 0.5700 0.4767
vt 0.0255 0.2904
vt 0.0208 0.0129
vt 0.0255 0.0129
vt 0.0208 0.2904
vt 0.0407 0.0129
vt 0.0313 0.2962
vt 0.0407 0.2962
vt 0.0313 0.0129
vt 0.5745 0.0079
vt 0.2941 0.0050
vt 0.5774 0.0050
vt 0.2970 0.0079
vt 0.5774 0.4300
vt 0.5745 0.4271
vt 0.2970 0.4271
vt 0.2941 0.4300
vt 0.0136 0.2904
vt 0.0129 0.0129
vt 0.0136 0.0129
vt 0.0129 0.2904
vt 0.9891 0.4491
vt 0.5700 0.4498
vt 0.9891 0.4498
vt 0.5700 0.4491
vt 0.5700 0.4564
vt 0.9891 0.4557
vt 0.9891 0.4564
vt 0.5700 0.4557
vt 0.2875 0.4346
vt 0.5650 0.8538
vt 0.2875 0.8538
vt 0.5650 0.4346
vt 0.0609 0.0129
vt 0.0602 0.2904
vt 0.0609 0.2904
vt 0.0602 0.0129
vt 0.1201 0.1058
vt 0.1154 0.1058
vt 0.1154 0.1047
vt 0.0980 0.0762
vt 0.0820 0.1413
vt 0.0820 0.1401
vt 0.0773 0.0610
vt 0.0914 0.0562
vt 0.0914 0.0610
vt 0.0796 0.0562
vn -1.0000 0.0000 0.0000
vn 0.0000 0.0000 -1.0000
vn 0.0000 1.0000 0.0000
vn -0.0000 -0.8944 -0.4472
vn 1.0000 -0.0000 0.0000
vn 0.0000 -1.0000 0.0000
vn 0.0000 -0.0000 1.0000
usemtl _auto_
s 1
f 1/1/1 2/2/1 3/3/1
f 2/2/1 1/1/1 4/4/1
s 2
f 1/5/2 5/6/2 4/7/2
f 5/6/2 1/5/2 6/8/2
s 3
f 1/9/3 7/10/3 6/11/3
f 1/9/3 8/12/3 7/10/3
f 8/12/3 1/9/3 3/13/3
f 36/14/4 5/15/4 13/16/4
f 37/17/4 5/15/4 36/14/4
f 38/18/4 5/15/4 37/17/4
f 40/19/1 36/20/1 10/21/1
f 36/20/1 40/19/1 37/22/1
f 37/23/2 7/24/2 40/25/2
f 7/24/2 37/23/2 38/26/2
f 7/27/5 39/28/5 38/29/5
f 6/11/3 7/10/3 40/30/3
s 4
f 9/31/2 8/32/2 3/33/2
f 9/31/2 10/34/2 8/32/2
f 11/35/2 10/34/2 9/31/2
f 11/35/2 12/36/2 10/34/2
f 11/35/2 13/37/2 12/36/2
f 11/35/2 14/38/2 13/37/2
f 36/39/2 14/38/2 27/40/2
f 13/37/2 14/38/2 36/39/2
f 39/41/2 27/40/2 2/42/2
f 36/39/2 27/40/2 39/41/2
f 10/34/2 36/39/2 39/41/2
f 10/34/2 39/41/2 8/32/2
f 9/31/2 2/42/2 27/40/2
f 9/31/2 3/33/2 2/42/2
s 5
f 15/43/1 14/44/1 11/45/1
f 14/44/1 15/43/1 16/46/1
s 6
f 17/47/2 16/48/2 15/49/2
f 16/48/2 17/47/2 18/50/2
f 21/51/2 25/52/2 24/53/2
f 25/52/2 21/51/2 26/54/2
f 21/51/2 15/49/2 26/54/2
f 15/49/2 21/51/2 17/47/2
f 18/50/2 25/52/2 16/48/2
f 25/52/2 18/50/2 24/53/2
s 7
f 17/55/5 19/56/5 18/57/5
f 19/56/5 17/55/5 20/58/5
s 8
f 21/59/3 20/60/3 17/61/3
f 20/60/3 21/59/3 22/62/3
s 9
f 21/63/1 23/64/1 22/65/1
f 23/64/1 21/63/1 24/66/1
s 10
f 15/67/6 9/68/6 26/69/6
f 9/68/6 15/67/6 11/70/6
s 11
f 27/71/5 26/72/5 9/73/5
f 26/72/5 27/71/5 25/74/5
s 12
f 14/75/3 25/76/3 27/77/3
f 25/76/3 14/75/3 16/78/3
s 13
f 18/79/6 23/80/6 24/81/6
f 23/80/6 18/79/6 19/82/6
s 14
f 28/83/7 23/84/7 19/85/7
f 23/84/7 28/83/7 29/86/7
f 28/83/7 20/87/7 33/88/7
f 20/87/7 28/83/7 19/85/7
f 20/87/7 34/89/7 33/88/7
f 34/89/7 20/87/7 22/90/7
f 22/90/7 29/86/7 34/89/7
f 29/86/7 22/90/7 23/84/7
s 15
f 28/91/3 30/92/3 29/93/3
f 30/92/3 28/91/3 31/94/3
s 16
f 28/95/1 32/96/1 31/97/1
f 32/96/1 28/95/1 33/98/1
s 17
f 29/99/5 35/100/5 34/101/5
f 35/100/5 29/99/5 30/102/5
s 18
f 30/103/7 32/104/7 35/105/7
f 32/104/7 30/103/7 31/106/7
s 19
f 32/107/6 34/108/6 35/109/6
f 34/108/6 32/107/6 33/110/6
s 20
f 38/18/4 4/111/4 5/15/4
f 4/111/4 38/18/4 2/112/4
f 39/113/4 2/112/4 38/18/4
s 21
f 39/28/5 7/27/5 8/114/5
s 22
f 6/11/3 40/30/3 12/115/3
f 12/115/3 40/30/3 10/116/3
s 23
f 13/117/5 6/118/5 12/119/5
f 6/118/5 13/117/5 5/120/5
