ply
format ascii 1.0
comment Created by Blender 2.78 (sub 0) - www.blender.org, source file: 'game_hall_carpet.blend'
element vertex 20
property float x
property float y
property float z
property float nx
property float ny
property float nz
property float s
property float t
element face 10
property list uchar uint vertex_indices
end_header
1.000000 -1.005000 0.005000 0.577349 -0.577349 0.577349 0.966501 0.980073
-1.000000 -1.005000 -0.005000 -0.707083 -0.707083 0.000000 0.005000 0.975265
1.000000 -1.005000 -0.005000 0.707083 -0.707083 0.000000 0.966501 0.975265
-1.000000 -1.005000 0.005000 -0.577349 -0.577349 0.577349 0.005000 0.980073
1.000000 -1.005000 0.005000 0.577349 -0.577349 0.577349 0.966501 0.966501
-1.000000 0.995000 0.005000 -0.577349 0.577349 0.577349 0.005000 0.005000
-1.000000 -1.005000 0.005000 -0.577349 -0.577349 0.577349 0.966501 0.005000
1.000000 0.995000 0.005000 0.577349 0.577349 0.577349 0.005000 0.966501
1.000000 -1.005000 0.005000 0.577349 -0.577349 0.577349 0.980073 0.966501
1.000000 0.995000 -0.005000 0.707083 0.707083 0.000000 0.975265 0.005000
1.000000 0.995000 0.005000 0.577349 0.577349 0.577349 0.980073 0.005000
1.000000 -1.005000 -0.005000 0.707083 -0.707083 0.000000 0.975265 0.966501
1.000000 0.995000 -0.005000 0.707083 0.707083 0.000000 0.005000 0.995000
-1.000000 0.995000 0.005000 -0.577349 0.577349 0.577349 0.966501 0.990193
1.000000 0.995000 0.005000 0.577349 0.577349 0.577349 0.005000 0.990193
-1.000000 0.995000 -0.005000 -0.707083 0.707083 0.000000 0.966501 0.995000
-1.000000 -1.005000 -0.005000 -0.707083 -0.707083 0.000000 0.995000 0.005000
-1.000000 0.995000 0.005000 -0.577349 0.577349 0.577349 0.990193 0.966501
-1.000000 0.995000 -0.005000 -0.707083 0.707083 0.000000 0.995000 0.966501
-1.000000 -1.005000 0.005000 -0.577349 -0.577349 0.577349 0.990193 0.005000
3 0 1 2
3 1 0 3
3 4 5 6
3 5 4 7
3 8 9 10
3 9 8 11
3 12 13 14
3 13 12 15
3 16 17 18
3 17 16 19
